HIERARCHY
ROOT joint_Root
{
	OFFSET 0.0 0.0 0.0
	CHANNELS 6 Xposition Yposition Zposition Zrotation Xrotation Yrotation 
	JOINT Hips
	{
		OFFSET -0.726466 93.3139 -2.00062
		CHANNELS 6 Xposition Yposition Zposition Zrotation Xrotation Yrotation 
		JOINT Spine
		{
			OFFSET 15.7357 0.0 0.0
			CHANNELS 6 Xposition Yposition Zposition Zrotation Xrotation Yrotation 
			JOINT Chest
			{
				OFFSET 8.98455 -0.406207 0.0
				CHANNELS 6 Xposition Yposition Zposition Zrotation Xrotation Yrotation 
				JOINT Neck
				{
					OFFSET 16.3773 0.0 0.0
					CHANNELS 6 Xposition Yposition Zposition Zrotation Xrotation Yrotation 
					JOINT Head
					{
						OFFSET 6.45672 0.0 0.0
						CHANNELS 6 Xposition Yposition Zposition Zrotation Xrotation Yrotation 
						End Site
						{
							OFFSET 0.0 0.0 0.0
						}
					}
				}
				JOINT Shoulder_L
				{
					OFFSET 12.9942 -0.242716 4.98039
					CHANNELS 6 Xposition Yposition Zposition Zrotation Xrotation Yrotation 
					JOINT UpperArm_L
					{
						OFFSET 5.34809 0.0 0.0
						CHANNELS 6 Xposition Yposition Zposition Zrotation Xrotation Yrotation 
						JOINT LowerArm_L
						{
							OFFSET 24.3286 1.87007e-05 0.0
							CHANNELS 6 Xposition Yposition Zposition Zrotation Xrotation Yrotation 
							JOINT Hand_L
							{
								OFFSET 22.2916 0.0 0.0
								CHANNELS 6 Xposition Yposition Zposition Zrotation Xrotation Yrotation 
								End Site
								{
									OFFSET 0.0 0.0 0.0
								}
							}
						}
					}
				}
				JOINT Shoulder_R
				{
					OFFSET 12.9945 -0.242716 -4.98039
					CHANNELS 6 Xposition Yposition Zposition Zrotation Xrotation Yrotation 
					JOINT UpperArm_R
					{
						OFFSET -5.34813 0.0 0.0
						CHANNELS 6 Xposition Yposition Zposition Zrotation Xrotation Yrotation 
						JOINT LowerArm_R
						{
							OFFSET -24.3289 0.000322201 0.0
							CHANNELS 6 Xposition Yposition Zposition Zrotation Xrotation Yrotation 
							JOINT Hand_R
							{
								OFFSET -22.2915 -0.000108084 0.0
								CHANNELS 6 Xposition Yposition Zposition Zrotation Xrotation Yrotation 
								End Site
								{
									OFFSET 0.0 0.0 0.0
								}
							}
						}
					}
				}
			}
		}
		JOINT UpperLeg_L
		{
			OFFSET -2.19248 -6.46944 0.0
			CHANNELS 6 Xposition Yposition Zposition Zrotation Xrotation Yrotation 
			JOINT LowerLeg_L
			{
				OFFSET 39.0811 0.0 -1.23785e-05
				CHANNELS 6 Xposition Yposition Zposition Zrotation Xrotation Yrotation 
				JOINT Foot_L
				{
					OFFSET 40.9854 0.0 -1.26872e-05
					CHANNELS 6 Xposition Yposition Zposition Zrotation Xrotation Yrotation 
					JOINT Toes_L
					{
						OFFSET 11.7543 0.0 0.0
						CHANNELS 6 Xposition Yposition Zposition Zrotation Xrotation Yrotation 
						End Site
						{
							OFFSET 0.0 0.0 0.0
						}
					}
				}
			}
		}
		JOINT UpperLeg_R
		{
			OFFSET -2.19251 6.46944 0.0
			CHANNELS 6 Xposition Yposition Zposition Zrotation Xrotation Yrotation 
			JOINT LowerLeg_R
			{
				OFFSET -39.0811 -0.00228153 -0.0401928
				CHANNELS 6 Xposition Yposition Zposition Zrotation Xrotation Yrotation 
				JOINT Foot_R
				{
					OFFSET -40.9854 0.0 0.0
					CHANNELS 6 Xposition Yposition Zposition Zrotation Xrotation Yrotation 
					JOINT Toes_R
					{
						OFFSET -11.7543 0.0 0.0
						CHANNELS 6 Xposition Yposition Zposition Zrotation Xrotation Yrotation 
						End Site
						{
							OFFSET 0.0 0.0 0.0
						}
					}
				}
			}
		}
	}
}
MOTION
Frames:	8
Frame Time:	0.0333333
0.000000 0.000000 0.000000 0.000000 0.000000 -0.000000 -0.730392 91.988600 1.114150 87.950800 0.084337 1.675740 15.735700 0.000005 -0.000001 80.443200 85.580100 -79.890600 8.984550 -0.406207 -0.000000 0.959032 -1.499880 1.116790 16.377300 -0.000001 -0.000001 -1.773710 -2.978210 1.139680 6.456720 -0.000001 -0.000000 -1.406760 -2.168260 0.533812 12.994200 -0.242716 4.980390 -90.046100 0.153626 -73.293600 5.348090 -0.000007 -0.000001 -67.584000 33.339400 -13.631900 24.328600 0.000019 0.000005 2.130290 4.378610 -25.976100 22.291600 -0.000001 0.000005 7.022910 5.587790 -10.638300 12.994500 -0.242716 -4.980390 87.961400 6.267140 -71.940500 -5.348130 -0.000001 -0.000004 -66.439600 29.001500 -12.344200 -24.328900 0.000322 -0.000009 -2.606080 -6.627560 -21.514700 -22.291500 -0.000108 -0.000004 11.377000 5.546100 -8.523060 -2.192480 -6.469440 -0.000000 -169.289000 -17.688800 -3.195090 39.081100 -0.000007 -0.000012 -0.185881 0.476295 21.319200 40.985400 -0.000006 -0.000013 -7.301750 -1.319890 -64.200300 11.754300 -0.000000 0.000003 -0.000123 -0.001228 -16.624500 -2.192510 6.469440 -0.000001 173.926000 23.632200 179.766000 -39.081100 -0.002282 -0.040193 -0.028578 0.094843 18.591200 -40.985400 0.000008 0.000006 -3.740490 1.210970 -63.982400 -11.754300 -0.000006 -0.000006 -0.002539 -0.035276 -18.007600
0.000000 0.000000 0.000000 0.000000 0.000000 -0.000000 -0.743401 92.001300 1.056900 87.934100 0.058237 1.630150 15.735700 0.000005 -0.000001 80.404500 85.623400 -79.853800 8.984550 -0.406207 -0.000000 0.872512 -1.491650 1.111790 16.377300 -0.000001 -0.000001 -2.072140 -3.054640 1.162230 6.456720 -0.000001 -0.000000 -1.804140 -2.272070 0.584965 12.994200 -0.242716 4.980390 -90.048800 0.161878 -73.215800 5.348090 -0.000007 -0.000001 -67.376400 29.823700 -13.228400 24.328600 0.000019 0.000005 1.969570 4.125810 -25.546100 22.291600 -0.000001 0.000005 7.536730 5.583990 -10.428300 12.994500 -0.242716 -4.980390 87.997200 6.123700 -71.850200 -5.348130 -0.000001 -0.000004 -66.196700 25.937400 -12.031400 -24.328900 0.000322 -0.000009 -2.506620 -6.510000 -21.104300 -22.291500 -0.000108 -0.000004 11.658000 5.549070 -8.662170 -2.192480 -6.469440 -0.000000 -169.293000 -17.690700 -3.255700 39.081100 -0.000007 -0.000012 -0.184186 0.473217 21.267300 40.985400 -0.000006 -0.000013 -7.296300 -1.328970 -64.136900 11.754300 -0.000000 0.000003 -0.000136 -0.001337 -16.628500 -2.192510 6.469440 -0.000001 174.000000 23.596300 179.675000 -39.081100 -0.002282 -0.040193 -0.027868 0.092933 18.553900 -40.985400 0.000008 0.000006 -3.680380 1.183470 -63.924700 -11.754300 -0.000006 -0.000006 -0.002639 -0.036449 -18.055300
0.000000 0.000000 0.000000 0.000000 0.000000 -0.000000 -0.765622 92.012400 1.004400 87.931000 0.088545 1.580790 15.735700 0.000005 -0.000001 80.092500 85.673200 -79.549600 8.984550 -0.406207 -0.000000 0.766433 -1.521560 1.095200 16.377300 -0.000001 -0.000001 -2.357510 -3.118830 1.169750 6.456720 -0.000001 -0.000000 -2.068520 -2.293300 0.646263 12.994200 -0.242716 4.980390 -90.024800 0.082536 -73.258000 5.348090 -0.000007 -0.000001 -66.482900 26.280500 -13.132900 24.328600 0.000019 0.000005 1.769610 3.805480 -24.961400 22.291600 -0.000001 0.000005 8.200040 5.584210 -10.441800 12.994500 -0.242716 -4.980390 88.018100 6.005810 -71.699100 -5.348130 -0.000001 -0.000004 -65.331400 22.901400 -12.118700 -24.328900 0.000322 -0.000009 -2.439960 -6.511660 -20.585100 -22.291500 -0.000108 -0.000004 12.047700 5.550370 -8.723340 -2.192480 -6.469440 -0.000000 -169.304000 -17.661800 -3.323860 39.081100 -0.000007 -0.000012 -0.182917 0.471477 21.204800 40.985400 -0.000006 -0.000013 -7.303920 -1.354850 -64.063100 11.754300 -0.000000 0.000003 -0.000131 -0.001294 -16.626900 -2.192510 6.469440 -0.000001 174.074000 23.584200 179.593000 -39.081100 -0.002282 -0.040193 -0.025665 0.086456 18.536800 -40.985400 0.000008 0.000006 -3.615370 1.132180 -63.901300 -11.754300 -0.000006 -0.000006 -0.002662 -0.036721 -18.066400
0.000000 0.000000 0.000000 0.000000 0.000000 -0.000000 -0.796064 92.027400 0.959668 87.909200 0.049299 1.550570 15.735700 0.000005 -0.000001 79.547000 85.743300 -79.008300 8.984550 -0.406207 -0.000000 0.614020 -1.577660 1.084960 16.377300 -0.000001 -0.000001 -2.567660 -3.101470 1.198130 6.456720 -0.000001 -0.000000 -2.184350 -2.199230 0.703648 12.994200 -0.242716 4.980390 -89.992200 -0.025869 -73.247500 5.348090 -0.000007 -0.000001 -64.685300 22.995900 -13.307000 24.328600 0.000019 0.000005 1.761700 3.880650 -24.440100 22.291600 -0.000001 0.000005 8.816430 5.579140 -10.166600 12.994500 -0.242716 -4.980390 88.053600 5.857100 -71.580900 -5.348130 -0.000001 -0.000004 -63.904300 19.725500 -12.530900 -24.328900 0.000322 -0.000009 -2.214780 -6.113600 -19.948600 -22.291500 -0.000108 -0.000004 12.323200 5.548610 -8.640870 -2.192480 -6.469440 -0.000000 -169.280000 -17.706400 -3.340280 39.081100 -0.000007 -0.000012 -0.181770 0.470619 21.118600 40.985400 -0.000006 -0.000013 -7.306480 -1.343600 -63.981700 11.754300 -0.000000 0.000003 -0.000141 -0.001378 -16.630000 -2.192510 6.469440 -0.000001 174.163000 23.534400 179.528000 -39.081100 -0.002282 -0.040193 -0.022894 0.078401 18.490000 -40.985400 0.000008 0.000006 -3.511020 1.102290 -63.851600 -11.754300 -0.000006 -0.000006 -0.002386 -0.033452 -17.933400
0.000000 0.000000 0.000000 0.000000 0.000000 -0.000000 -0.827914 92.025400 0.918525 87.867100 -0.029187 1.561470 15.735700 0.000005 -0.000001 79.234800 85.824700 -78.700300 8.984550 -0.406207 -0.000000 0.445563 -1.593420 1.074430 16.377300 -0.000001 -0.000001 -2.703950 -3.007110 1.175820 6.456720 -0.000001 -0.000000 -2.248080 -2.150530 0.876425 12.994200 -0.242716 4.980390 -89.936600 -0.209279 -73.153500 5.348090 -0.000007 -0.000001 -62.238500 19.547600 -13.890100 24.328600 0.000019 0.000005 1.637390 3.770910 -23.491400 22.291600 -0.000001 0.000005 9.369720 5.576210 -10.010200 12.994500 -0.242716 -4.980390 88.085400 5.685770 -71.354700 -5.348130 -0.000001 -0.000004 -62.004300 16.128100 -13.246400 -24.328900 0.000322 -0.000009 -2.020970 -5.817660 -19.185100 -22.291500 -0.000108 -0.000004 12.715000 5.548500 -8.635180 -2.192480 -6.469440 -0.000000 -169.211000 -17.738200 -3.349610 39.081100 -0.000007 -0.000012 -0.182057 0.470491 21.154200 40.985400 -0.000006 -0.000013 -7.334400 -1.378520 -63.981300 11.754300 -0.000000 0.000003 -0.000104 -0.001067 -16.618500 -2.192510 6.469440 -0.000001 174.240000 23.494800 179.481000 -39.081100 -0.002282 -0.040193 -0.022415 0.076802 18.527600 -40.985400 0.000008 0.000006 -3.490990 1.124880 -63.850000 -11.754300 -0.000006 -0.000006 -0.002637 -0.036425 -18.054300
0.000000 0.000000 0.000000 0.000000 0.000000 -0.000000 -0.865230 92.030800 0.882729 87.845500 -0.077396 1.631130 15.735700 0.000005 -0.000001 78.806900 85.892900 -78.277100 8.984550 -0.406207 -0.000000 0.299922 -1.628550 1.063150 16.377300 -0.000001 -0.000001 -2.801410 -2.933250 1.195670 6.456720 -0.000001 -0.000000 -2.276180 -2.084170 1.019560 12.994200 -0.242716 4.980390 -89.872800 -0.417152 -73.039500 5.348090 -0.000007 -0.000001 -59.772400 14.952300 -14.594900 24.328600 0.000019 0.000005 1.441600 3.516200 -22.308900 22.291600 -0.000001 0.000005 9.844430 5.571430 -9.762920 12.994500 -0.242716 -4.980390 88.134000 5.476890 -71.152700 -5.348130 -0.000001 -0.000004 -59.728400 11.822600 -14.211200 -24.328900 0.000322 -0.000009 -1.834920 -5.539960 -18.347900 -22.291500 -0.000108 -0.000004 12.920200 5.549070 -8.662130 -2.192480 -6.469440 -0.000000 -169.155000 -17.713900 -3.283430 39.081100 -0.000007 -0.000012 -0.181372 0.469389 21.126800 40.985400 -0.000006 -0.000013 -7.359280 -1.435720 -63.943400 11.754300 -0.000000 0.000003 -0.000118 -0.001181 -16.622700 -2.192510 6.469440 -0.000001 174.270000 23.488300 179.512000 -39.081100 -0.002282 -0.040193 -0.022521 0.077046 18.544200 -40.985400 0.000008 0.000006 -3.383240 1.156440 -63.842100 -11.754300 -0.000006 -0.000006 -0.002534 -0.035209 -18.004900
0.000000 0.000000 0.000000 0.000000 0.000000 -0.000000 -0.892255 92.027100 0.850983 87.816200 -0.147723 1.687700 15.735700 0.000005 -0.000001 78.438300 85.968300 -77.925500 8.984550 -0.406207 -0.000000 0.141696 -1.649770 1.026920 16.377300 -0.000001 -0.000001 -2.903220 -2.870450 1.256270 6.456720 -0.000001 -0.000000 -2.302490 -2.031970 1.228360 12.994200 -0.242716 4.980390 -89.783600 -0.701697 -72.859400 5.348090 -0.000007 -0.000001 -57.471400 9.092360 -15.425800 24.328600 0.000019 0.000005 1.295440 3.335680 -21.236000 22.291600 -0.000001 0.000005 10.313300 5.566470 -9.509800 12.994500 -0.242716 -4.980390 88.196800 5.237440 -70.971200 -5.348130 -0.000001 -0.000004 -57.086300 7.291830 -15.391200 -24.328900 0.000322 -0.000009 -1.719800 -5.436030 -17.575400 -22.291500 -0.000108 -0.000004 13.429200 5.546040 -8.520380 -2.192480 -6.469440 -0.000000 -169.079000 -17.726800 -3.228820 39.081100 -0.000007 -0.000012 -0.182468 0.471673 21.149400 40.985400 -0.000006 -0.000013 -7.390500 -1.460990 -63.946900 11.754300 -0.000000 0.000003 -0.000113 -0.001139 -16.621100 -2.192510 6.469440 -0.000001 174.303000 23.427900 179.529000 -39.081100 -0.002282 -0.040193 -0.024098 0.081632 18.568600 -40.985400 0.000008 0.000006 -3.448550 1.189670 -63.834800 -11.754300 -0.000006 -0.000006 -0.002425 -0.033911 -17.952100
0.000000 0.000000 0.000000 0.000000 0.000000 -0.000000 -0.930717 92.031100 0.806686 87.777700 -0.208689 1.735340 15.735700 0.000005 -0.000001 78.042800 86.065200 -77.539200 8.984550 -0.406207 -0.000000 -0.059357 -1.664420 1.005960 16.377300 -0.000001 -0.000001 -2.984350 -2.818400 1.308220 6.456720 -0.000001 -0.000000 -2.290780 -2.069680 1.403020 12.994200 -0.242716 4.980390 -89.659200 -1.092250 -72.672000 5.348090 -0.000007 -0.000001 -55.399000 2.552730 -16.448300 24.328600 0.000019 0.000005 1.077500 2.914960 -20.294700 22.291600 -0.000001 0.000005 10.900600 5.561110 -9.242290 12.994500 -0.242716 -4.980390 88.323600 4.821460 -70.801400 -5.348130 -0.000001 -0.000004 -54.528900 2.218380 -16.780100 -24.328900 0.000322 -0.000009 -1.471710 -4.934630 -16.617800 -22.291500 -0.000108 -0.000004 14.267400 5.544290 -8.440690 -2.192480 -6.469440 -0.000000 -169.002000 -17.817800 -3.208460 39.081100 -0.000007 -0.000012 -0.182012 0.470238 21.159800 40.985400 -0.000006 -0.000013 -7.400500 -1.451780 -63.905300 11.754300 -0.000000 0.000003 -0.000118 -0.001184 -16.622800 -2.192510 6.469440 -0.000001 174.377000 23.381600 179.509000 -39.081100 -0.002282 -0.040193 -0.022176 0.075709 18.614200 -40.985400 0.000008 0.000006 -3.280600 1.160350 -63.840100 -11.754300 -0.000006 -0.000006 -0.002561 -0.035527 -18.017800
